<?xml version="1.0" encoding="UTF-8"?>
<svg id="Layer_1" data-name="Layer 1" xmlns="http://www.w3.org/2000/svg" viewBox="0 0 530.42 60.32">
  <defs>
    <style>
      .cls-1 {
        fill: #010101;
      }
    </style>
  </defs>
  <path class="cls-1" d="M0,.86h18.65c13.01,0,20.88,5.65,20.88,15.57,0,5.65-3.34,9.84-8.47,12.49,6.76,2.82,11.04,7.62,11.04,13.78,0,10.27-8.81,16.77-22.59,16.77H0V.86ZM27.98,17.54c0-4.11-3.25-6.67-8.9-6.67h-7.61v13.43h7.61c5.56,0,8.9-2.65,8.9-6.76ZM30.54,41.92c0-4.88-3.85-7.62-10.61-7.62h-8.47v15.14h8.47c6.76,0,10.61-2.74,10.61-7.53Z"/>
  <path class="cls-1" d="M52.96.86h19.42c12.49,0,21.22,6.76,21.22,17.62,0,7.62-4.02,12.92-10.18,15.66l13.61,25.33h-12.41l-11.89-22.42h-8.3v22.42h-11.46V.86ZM81.8,18.91c0-4.53-3.42-7.62-8.98-7.62h-8.39v15.32h8.39c5.56,0,8.98-3.08,8.98-7.7Z"/>
  <path class="cls-1" d="M141.69,47.4h-25.33l-4.62,12.06h-11.72L123.55.86h11.46l23.53,58.61h-12.24l-4.62-12.06ZM137.76,37.22l-8.73-22.5-8.73,22.5h17.45Z"/>
  <path class="cls-1" d="M166.68.86h11.72v58.61h-11.72V.86Z"/>
  <path class="cls-1" d="M203.82,19.51v39.96h-11.12V.86h11.29l26.01,39.96V.86h11.12v58.61h-11.29l-26.01-39.96Z"/>
  <path class="cls-1" d="M255.41.86h16.6c20.7,0,33.28,10.95,33.28,29.35s-12.58,29.26-33.28,29.26h-16.6V.86ZM293.23,30.2c0-11.89-7.44-18.65-20.79-18.65h-5.3v37.22h5.3c13.26,0,20.79-6.76,20.79-18.57Z"/>
  <path class="cls-1" d="M372.2,30.12c0,17.2-12.83,30.2-29.95,30.2s-29.86-13-29.86-30.2S325.32,0,342.26,0s29.95,13,29.95,30.12ZM324.55,30.12c0,11.12,7.53,19.42,17.71,19.42s17.8-8.3,17.8-19.42-7.62-19.34-17.8-19.34-17.71,8.3-17.71,19.34Z"/>
  <path class="cls-1" d="M376.06,52.79l7.19-7.87c2.91,3.17,6.07,4.62,9.41,4.62,4.79,0,7.7-3.08,7.7-9.07V.86h11.81v39.78c0,13.18-7.1,19.68-19.42,19.68-6.33,0-11.98-2.57-16.68-7.53Z"/>
  <path class="cls-1" d="M481.38,30.12c0,17.2-12.83,30.2-29.95,30.2s-29.86-13-29.86-30.2S434.5,0,451.44,0s29.95,13,29.95,30.12ZM433.73,30.12c0,11.12,7.53,19.42,17.71,19.42s17.8-8.3,17.8-19.42-7.62-19.34-17.8-19.34-17.71,8.3-17.71,19.34Z"/>
  <path class="cls-1" d="M513.9,25.5c10.95,3.68,16.51,8.21,16.51,17.2,0,10.01-8.9,17.62-20.54,17.62-8.56,0-16.51-3.25-22.5-9.24l6.42-7.87c4.71,4.71,10.01,6.93,16.08,6.93,5.39,0,8.98-2.82,8.98-7.02,0-3.94-3.59-5.73-11.72-8.38-11.64-3.94-17.63-8.21-17.63-17.88S498.07,0,509.11,0c7.19,0,13.95,2.82,19.34,8.04l-6.67,7.79c-4.19-3.85-8.04-5.65-12.58-5.65s-8.13,2.22-8.13,6.25c0,4.28,3.94,6.16,12.83,9.07Z"/>
</svg>