<?xml version="1.0" encoding="UTF-8"?>
<svg xmlns="http://www.w3.org/2000/svg" viewBox="0 0 1641.07 1032.82">
  <defs>
    <style>
      .cls-1 {
        fill: none;
      }

      .cls-2 {
        stroke: #010101;
        stroke-miterlimit: 10;
        stroke-width: .25px;
      }

      .cls-2, .cls-3 {
        fill: #010101;
      }

      .cls-4 {
        fill: #f9c23a;
      }
    </style>
  </defs>
  <g id="Layer_2" data-name="Layer 2">
    <path class="cls-1" d="M1180.14,524.58c40.59-198.6-216.67-377.58-310.96-296.91-3.56,3.04,7.97,272.2,6.29,304.3l304.67-7.39Z"/>
  </g>
  <g id="Layer_1" data-name="Layer 1">
    <path class="cls-2" d="M1600.85,438.25,1546.08,499.79"/>
    <g>
      <path class="cls-4" d="M1312.47,491.94s0,12.06-128.01,20.78c-13.93.95-46.52,2.71-46.52,2.71,46.51-42.62,64.64-289.08-275.53-297.75-4.41-.11-5.81,303.79-10.31,303.81-10.29.03-20.81.04-31.57.04-6.44,0-29.46-1.17-35.73-1.18,0,0,4.12-305.87-3.33-305.33-342.98,24.67-312.89,254.04-318.67,298.12-.38,2.88-134.19-21.19-134.19-21.19C328.6,220.25,548.85,0,820.54,0s491.94,220.25,491.94,491.94Z"/>
      <g>
        <path class="cls-3" d="M787.06,194.63c-20.5-17.01-49.3-24.06-77.03-18.86-24.98,4.69-42.38,19.42-52.66,31.13-21.09-2.94-57.25-3.81-88.23,16.3-31.27,20.3-39.29,52.54-40.76,74.75-20.65,5.6-50.56,17.75-70.42,43.52-28.73,37.26-36.07,81.45-21.21,127.77.15.48.31.94.47,1.41C355.86,460.96,136.85,426.25,0,323v50.66c52.81,37.15,115.44,65.53,177.45,87.08v213.7h-79.93v50.66s79.93,0,79.93,0v307.74s50.66,0,50.66,0v-307.74h210.39c-20.26-21.2-25.33-50.66-25.33-50.66h-185.06s0-197.47,0-197.47c97.27,28.67,185.65,41.26,222.61,45.66-14.62,29.43-32.86,80.04-22.04,134.99,10.89,55.32,55.48,86.35,75.62,97.79,3.33,8.08,8.88,20.16,16.71,32.77,19.29,31.1,43.51,51.02,70.03,57.62,23.85,5.93,47.47,1.33,63.43-3.77,12.23,12.83,32.75,28.43,62.12,31.72,4.81.54,9.53.81,14.14.81,23.35,0,43.81-6.85,58.63-19.81,15.61-13.66,24.12-32.84,24.6-55.48V249.81c0-21.18-9.55-40.78-26.9-55.18ZM497.56,372.01c18.5-23.99,56.8-28.58,58.67-28.79l27.26-1.94-4.95-27c-.27-1.96-4.38-34.72,17.82-49.13,13.67-8.88,30.33-10.4,43.32-9.78-1.25,12.91-.37,28.1,4.11,45.71l48.46-12.32c-10.99-43.23,10.72-56.46,13.23-57.83-.37.2-.57.28-.57.28l-.07-.14c4.07-2.78,8.89-5.12,14.39-6.15,13.28-2.49,26.7.57,35.88,8.2,4.03,3.35,8.84,8.96,8.84,16.71v93.07c-11.19,5.22-32.98,7.32-50.01,5.82l-4.58,49.79c.41.04,6.58.59,15.62.59,5.83,0,12.85-.23,20.29-.97,6.66-.67,12.87-1.68,18.69-2.99v98.38c-.51.23-1.01.47-1.51.73-42.31,22.4-71.41,11.5-111.68-3.6-40.04-15.01-89.05-33.38-156.83-14.12-12.48-23.24-26.65-65.25,3.61-104.49ZM536.56,715.69l.16.06h0s-.16-.06-.16-.06ZM756.44,817.11c-7.05,6.17-19.22,8.63-34.28,6.94-23.93-2.68-36.67-22.45-37.94-24.51l-11.24-21.4-21.9,11.57c-7.28,3.65-29.89,12.04-47.97,7.55-14.69-3.65-27.36-17.11-36.94-31.45,24.08-4.86,43.79-20.17,56.11-43.85l-44.36-23.07c-5.79,11.12-13.39,16.94-23.92,18.3-8.88,1.14-16.67-1.26-17.46-1.51l-2.13-.91c-1.85-.86-48.01-22.83-56.67-66.82-12.37-62.85,28.71-122.31,29.09-122.84l.24-.34c52.15-15.05,88.2-1.55,126.17,12.68,24.95,9.36,51.86,19.45,82.47,19.45,15.12,0,31.14-2.48,48.27-8.71v80.41c-40.06,25.37-80.52-.11-82.23-1.22l.15.1-27.7,41.63c1.81,1.2,18.38,11.92,42.92,17.45,9.71,2.19,19.33,3.27,28.79,3.27,13.07,0,25.83-2.08,38.07-6.19v114.8c-.22,8.33-2.69,14.44-7.53,18.68Z"/>
        <path class="cls-3" d="M1641.07,373.66v-50.66c-136.85,103.25-355.86,137.96-437.22,147.66.16-.47.32-.94.47-1.41,14.86-46.33,7.52-90.51-21.21-127.77-19.87-25.76-49.77-37.92-70.42-43.52-1.47-22.22-9.49-54.45-40.76-74.75-30.98-20.11-67.14-19.24-88.23-16.3-10.28-11.71-27.68-26.45-52.66-31.13-27.73-5.2-56.53,1.85-77.03,18.86-17.35,14.4-26.91,34-26.91,55.18v549.45c.49,22.63,9,41.82,24.61,55.48,14.82,12.97,35.29,19.81,58.63,19.81,4.61,0,9.33-.27,14.14-.81,29.37-3.29,49.89-18.9,62.12-31.72,15.97,5.09,39.58,9.7,63.43,3.77,26.53-6.6,50.75-26.53,70.04-57.62,7.82-12.61,13.38-24.69,16.71-32.77,20.14-11.44,64.73-42.47,75.62-97.79,10.82-54.95-7.42-105.55-22.04-134.99,36.96-4.4,125.34-16.99,222.61-45.66v197.47s-185.06,0-185.06,0c0,0-5.07,29.46-25.33,50.66h210.39v307.74h50.66v-307.74s79.93,0,79.93,0v-50.66h-79.93v-213.7c62.01-21.55,124.64-49.93,177.45-87.08ZM1163.35,647.94c-8.65,43.94-54.72,65.91-56.67,66.82l-2.73,1.16c-5.34,1.03-12.25,1.48-18.51-.84-6.88-2.55-12.32-8.42-16.62-17.94l-45.56,20.59c12.39,27.42,31.2,39.19,44.79,44.23,2.62.97,5.23,1.76,7.82,2.41-9.7,14.88-22.72,29.12-37.9,32.9-18.06,4.5-40.65-3.88-47.95-7.54l-21.44-11.95-11.71,21.75c-1.21,1.98-13.97,21.84-37.95,24.52-15.06,1.69-27.23-.78-34.28-6.94-4.85-4.24-7.31-10.35-7.53-18.68v-114.8c12.23,4.11,25,6.19,38.07,6.19,9.46,0,19.09-1.09,28.79-3.27,24.54-5.53,41.11-16.25,42.92-17.45l-27.7-41.63c-.41.27-41.38,26.9-82.08,1.12v-102.27c3.88.22,7.64.33,11.26.33,62.53,0,86.31-31.88,102.74-53.91l1.96-2.63-39.99-30.01c-.68.91-1.37,1.83-2.05,2.75-15.33,20.56-27.67,37.1-73.91,33.4v-226.43c0-7.74,4.81-13.36,8.84-16.71,9.19-7.62,22.6-10.69,35.88-8.19,5.49,1.03,10.31,3.37,14.39,6.16l-.07.14s4.99,3.07,9.12,9.43c7.42,11.45,8.66,28.09,3.57,48.12l48.46,12.31c4.47-17.61,5.35-32.8,4.1-45.71,12.99-.62,29.64.91,43.31,9.78,22.16,14.39,18.11,47.05,17.83,49.12l-5.09,26.63,27.39,2.32c1.71.19,40.14,4.75,58.68,28.79,31.07,40.29,15.56,83.17,2.82,106.06-23.05,31.32-55.74,38.34-57.39,38.68l.19-.04,9.19,49.15c1.64-.31,23.15-4.57,47.61-20.2,11.23,22.86,25.37,61.87,17.41,102.27Z"/>
      </g>
    </g>
  </g>
</svg>